# xmcd
#
# Track frame offsets: 
#        150
#        10064
#        41796
#        65605
#        94650
#        116577
#        134869
#        150918
#        165470
#        173336
#        195970
#
# Disc length: 3136 seconds
#
# Revision: 0
# Processed by: cddbd v1.5.2PL0 Copyright (c) Steve Scherf et al.
# Submitted via: ExactAudioCopyFreeDBPlugin 1.0
#
DISCID=820c3e0b
DTITLE=Fleetwood Mac - Carousel Ballroom June 1968 CD2
DYEAR=1968
DGENRE=Blues
TTITLE0=Stop Messin’ Round [cuts in]
TTITLE1=I Loved Another Woman
TTITLE2=I Believe
TTITLE3=The Sun Is Shining
TTITLE4=Long Tall Sally
TTITLE5=Willie and The Hand Jive
TTITLE6=Tuti Frutti
TTITLE7=Ready Teddy [cuts out]
TTITLE8=I Need Your Love So Bad [cuts in]
TTITLE9=Ready Teddy
TTITLE10=Shake Your Moneymaker
EXTD=
EXTT0=
EXTT1=
EXTT2=
EXTT3=
EXTT4=
EXTT5=
EXTT6=
EXTT7=
EXTT8=
EXTT9=
EXTT10=
PLAYORDER=
